<svg xmlns="http://www.w3.org/2000/svg" width="1060" height="1130" viewBox="0 0 1060 1130" font-family="Arial, Helvetica, sans-serif">
<defs>
  <marker id="panah-terbuka" viewBox="0 0 12 12" refX="11" refY="6"
          markerWidth="12" markerHeight="12" orient="auto-start-reverse">
    <path d="M 1 1 L 11 6 L 1 11" fill="none" stroke="#1a1a1a" stroke-width="1.4"/>
  </marker>
  <marker id="segitiga-generalisasi" viewBox="0 0 14 14" refX="13" refY="7"
          markerWidth="14" markerHeight="14" orient="auto-start-reverse">
    <path d="M 1 1 L 13 7 L 1 13 z" fill="#ffffff" stroke="#1a1a1a" stroke-width="1.4"/>
  </marker>
</defs>

<rect width="1060" height="1130" fill="#ffffff"/>
<rect x="555" y="40" width="455" height="1050" fill="none" stroke="#1a1a1a" stroke-width="1.6"/>
<text x="782" y="28" text-anchor="middle" font-size="17" font-weight="bold">Sistem Pendukung Keputusan SEBUSE (TOPSIS)</text>
<line x1="144" y1="140" x2="597" y2="82" stroke="#55677d" stroke-width="1.2"/>
<line x1="144" y1="140" x2="597" y2="154" stroke="#55677d" stroke-width="1.2"/>
<line x1="144" y1="520" x2="597" y2="226" stroke="#55677d" stroke-width="1.2"/>
<line x1="144" y1="520" x2="597" y2="298" stroke="#55677d" stroke-width="1.2"/>
<line x1="144" y1="520" x2="597" y2="370" stroke="#55677d" stroke-width="1.2"/>
<line x1="144" y1="520" x2="597" y2="442" stroke="#55677d" stroke-width="1.2"/>
<line x1="144" y1="520" x2="597" y2="514" stroke="#55677d" stroke-width="1.2"/>
<line x1="144" y1="520" x2="597" y2="586" stroke="#55677d" stroke-width="1.2"/>
<line x1="144" y1="520" x2="597" y2="786" stroke="#55677d" stroke-width="1.2"/>
<line x1="144" y1="520" x2="597" y2="886" stroke="#55677d" stroke-width="1.2"/>
<line x1="144" y1="520" x2="597" y2="958" stroke="#55677d" stroke-width="1.2"/>
<line x1="144" y1="520" x2="597" y2="1030" stroke="#55677d" stroke-width="1.2"/>
<line x1="144" y1="960" x2="597" y2="886" stroke="#55677d" stroke-width="1.2"/>
<line x1="144" y1="960" x2="597" y2="958" stroke="#55677d" stroke-width="1.2"/>
<line x1="144" y1="960" x2="597" y2="1030" stroke="#55677d" stroke-width="1.2"/>
<line x1="110" y1="202" x2="110" y2="474" stroke="#1a1a1a" stroke-width="1.4" marker-end="url(#segitiga-generalisasi)"/>
<text x="120" y="330" font-size="14" font-style="italic" fill="#55677d">generalization</text>
<ellipse cx="782" cy="82" rx="185" ry="26" fill="#eef3f8" stroke="#1a1a1a" stroke-width="1.4"/>
<text x="782" y="87" text-anchor="middle" font-size="15">UC-02: Kelola Data Pengguna</text>
<ellipse cx="782" cy="154" rx="185" ry="26" fill="#eef3f8" stroke="#1a1a1a" stroke-width="1.4"/>
<text x="782" y="159" text-anchor="middle" font-size="15">UC-03: Kelola Kriteria dan Bobot</text>
<ellipse cx="782" cy="226" rx="185" ry="26" fill="#eef3f8" stroke="#1a1a1a" stroke-width="1.4"/>
<text x="782" y="231" text-anchor="middle" font-size="15">UC-11: Kelola Aturan Event</text>
<ellipse cx="782" cy="298" rx="185" ry="26" fill="#eef3f8" stroke="#1a1a1a" stroke-width="1.4"/>
<text x="782" y="303" text-anchor="middle" font-size="15">UC-04: Kelola Data Peserta</text>
<ellipse cx="782" cy="370" rx="185" ry="26" fill="#eef3f8" stroke="#1a1a1a" stroke-width="1.4"/>
<text x="782" y="375" text-anchor="middle" font-size="15">UC-05: Impor Log Aktivitas</text>
<ellipse cx="782" cy="442" rx="185" ry="26" fill="#eef3f8" stroke="#1a1a1a" stroke-width="1.4"/>
<text x="782" y="447" text-anchor="middle" font-size="15">UC-12: Catat Log Aktivitas Manual</text>
<ellipse cx="782" cy="514" rx="185" ry="26" fill="#eef3f8" stroke="#1a1a1a" stroke-width="1.4"/>
<text x="782" y="519" text-anchor="middle" font-size="15">UC-06: Pre-processing Data</text>
<ellipse cx="782" cy="586" rx="185" ry="26" fill="#eef3f8" stroke="#1a1a1a" stroke-width="1.4"/>
<text x="782" y="591" text-anchor="middle" font-size="15">UC-07: Hitung Metode TOPSIS</text>
<ellipse cx="782" cy="686" rx="185" ry="26" fill="#eef3f8" stroke="#1a1a1a" stroke-width="1.4"/>
<text x="782" y="691" text-anchor="middle" font-size="15">UC-13: Lihat Rincian Komputasi</text>
<ellipse cx="782" cy="786" rx="185" ry="26" fill="#eef3f8" stroke="#1a1a1a" stroke-width="1.4"/>
<text x="782" y="791" text-anchor="middle" font-size="15">UC-10: Cetak Laporan Peringkat</text>
<ellipse cx="782" cy="886" rx="185" ry="26" fill="#eef3f8" stroke="#1a1a1a" stroke-width="1.4"/>
<text x="782" y="891" text-anchor="middle" font-size="15">UC-08: Lihat Papan Peringkat</text>
<ellipse cx="782" cy="958" rx="185" ry="26" fill="#eef3f8" stroke="#1a1a1a" stroke-width="1.4"/>
<text x="782" y="963" text-anchor="middle" font-size="15">UC-09: Lihat Detail Skor Individu</text>
<ellipse cx="782" cy="1030" rx="185" ry="26" fill="#eef3f8" stroke="#1a1a1a" stroke-width="1.4"/>
<text x="782" y="1035" text-anchor="middle" font-size="15">UC-01: Login</text>
<line x1="782" y1="612" x2="782" y2="660" stroke="#1a1a1a" stroke-width="1.3" stroke-dasharray="7 5" marker-end="url(#panah-terbuka)"/>
<text x="794" y="641" font-size="15" font-style="italic">&#171;include&#187;</text>
<line x1="782" y1="812" x2="782" y2="860" stroke="#1a1a1a" stroke-width="1.3" stroke-dasharray="7 5" marker-end="url(#panah-terbuka)"/>
<text x="794" y="841" font-size="15" font-style="italic">&#171;extend&#187;</text>
<g stroke="#1a1a1a" stroke-width="1.6" fill="none">
<circle cx="110" cy="106" r="13" fill="#ffffff"/>
<line x1="110" y1="119" x2="110" y2="154"/>
<line x1="88" y1="134" x2="132" y2="134"/>
<line x1="110" y1="154" x2="92" y2="182"/>
<line x1="110" y1="154" x2="128" y2="182"/>
</g>
<text x="110" y="200" text-anchor="middle" font-size="15" font-weight="bold">Super Admin</text>
<g stroke="#1a1a1a" stroke-width="1.6" fill="none">
<circle cx="110" cy="486" r="13" fill="#ffffff"/>
<line x1="110" y1="499" x2="110" y2="534"/>
<line x1="88" y1="514" x2="132" y2="514"/>
<line x1="110" y1="534" x2="92" y2="562"/>
<line x1="110" y1="534" x2="128" y2="562"/>
</g>
<text x="110" y="580" text-anchor="middle" font-size="15" font-weight="bold">Admin Panitia</text>
<g stroke="#1a1a1a" stroke-width="1.6" fill="none">
<circle cx="110" cy="926" r="13" fill="#ffffff"/>
<line x1="110" y1="939" x2="110" y2="974"/>
<line x1="88" y1="954" x2="132" y2="954"/>
<line x1="110" y1="974" x2="92" y2="1002"/>
<line x1="110" y1="974" x2="128" y2="1002"/>
</g>
<text x="110" y="1020" text-anchor="middle" font-size="15" font-weight="bold">Peserta (Karyawan)</text>
</svg>
